# xmcd
#
# Track frame offsets: 
#        150
#        11975
#        24787
#        37587
#        50467
#        63475
#        76252
#        88282
#        99617
#        112740
#        125772
#        138025
#        150775
#        162682
#        174660
#        188672
#        200135
#        211032
#        223187
#        234937
#        247622
#        259962
#        273315
#        285925
#        298800
#        311475
#        324190
#        335132
#
# Disc length: 4629 seconds
#
# Revision: 2
# Processed by: cddbd v1.5.2PL0 Copyright (c) Steve Scherf et al.
# Submitted via: ExactAudioCopy v1.1
#
DISCID=8312131c
DTITLE=Various Artist - Roots n' Blues - The Retrospective 1925-1950 
DTITLE=Disc 4
DYEAR=1992
DGENRE=Roots
TTITLE0=Frank Edwards - We Got To Get Together (mono)
TTITLE1=The Sweet Violet Boys - You Got To See Mama Ev'ry Night (Or Yo
TTITLE1=u Can't See Mama At All) (mono)
TTITLE2=The Humbard Family - I'll Fly Away (mono)
TTITLE3=Tony Hollins - Cross Cut Saw Blues (mono)
TTITLE4=Peter Cleighton - Black Snake Blues (mono)
TTITLE5=Black Cats and the Kitten - Step It Up And Go (mono)
TTITLE6=Bob and Randall Atcher - Papa's Going Crazy, Mama's Going Mad (m
TTITLE6=ono)
TTITLE7=Adolf Hofner and His San Antonians - Cotton-Eyed Joe (mono)
TTITLE8=Poor Boy Burke - Old Vets Blues (mono)
TTITLE9=Little Son Joe - Black Rat Swing (mono)
TTITLE10=Big Maceo Merriweather - Macy Special (mono)
TTITLE11=The Light Crust Doughboys with J.B. Brinkley - It's Funny Wha
TTITLE11=t Love Will Make You Do (mono)
TTITLE12=Hank Penny and His Radio Cowboys - Army Blues (mono)
TTITLE13=James 'Beale Street' Clark - Who But You (mono)
TTITLE14=Homer Harris - Tomorrow May Be Too Late (mono)
TTITLE15=McKinley Morganfield (Muddy Waters) - Burying Ground Blues (m
TTITLE15=ono)
TTITLE16=Bill Monroe and His Blue Grass Boys - Goodbye Old Pal (mono)
TTITLE17=Gene Autry - Dixie Cannonball (mono)
TTITLE18=Bill Landford and The Landfordaires - Run On For A Long Time (m
TTITLE18=ono)
TTITLE19=Joe Williams - Baby, Please Don't Go (mono)
TTITLE20=Sister Myrtle Fields with The Austin McCoy Trio - I'm Toiling
TTITLE20=(mono)
TTITLE21=Willie 'Boodle It' Right - Two By Four Blues (mono)
TTITLE22=The Bailes Brothers - You Can't Go Halfway (And Get In) (mono
TTITLE22=)
TTITLE23=Molly O'Day and The Cumberland Mountain Folks - Heaven's Radio 
TTITLE23=(mono)
TTITLE24=Rosetta Howard - Plow Hand Blues (mono)
TTITLE25=The Memphis Seven - Grunt Meat Blues (mono)
TTITLE26=The Deep South Boys - Until I Found The Lord (mono)
TTITLE27=Brother Porter and Brother Cook - I Know My Jesus Won't Deny Me
TTITLE27=(mono)
EXTD=4CD: Columbia/Legacy C4K 47911 (1992-06-30), UPC 074644791129.
EXTT0=
EXTT1=
EXTT2=
EXTT3=
EXTT4=
EXTT5=
EXTT6=
EXTT7=
EXTT8=
EXTT9=
EXTT10=
EXTT11=
EXTT12=
EXTT13=
EXTT14=
EXTT15=
EXTT16=
EXTT17=
EXTT18=
EXTT19=
EXTT20=
EXTT21=
EXTT22=
EXTT23=
EXTT24=
EXTT25=
EXTT26=
EXTT27=
PLAYORDER=
